<?xml version="1.0" encoding="UTF-8"?>
<svg xmlns="http://www.w3.org/2000/svg" viewBox="0 0 512 512" width="512" height="512" aria-label="AI Power Busy logo">
  <defs>
    <radialGradient id="panel-fill" cx="34%" cy="30%" r="78%">
      <stop offset="0%" stop-color="#112334" stop-opacity="0.72" />
      <stop offset="62%" stop-color="#09131f" stop-opacity="0.5" />
      <stop offset="100%" stop-color="#09131f" stop-opacity="0.14" />
    </radialGradient>
    <radialGradient id="panel-sheen" cx="30%" cy="24%" r="64%">
      <stop offset="0%" stop-color="#ffffff" stop-opacity="0.18" />
      <stop offset="52%" stop-color="#ffffff" stop-opacity="0.04" />
      <stop offset="100%" stop-color="#ffffff" stop-opacity="0" />
    </radialGradient>
    <filter id="wave-glow" x="-30%" y="-30%" width="160%" height="160%">
      <feGaussianBlur stdDeviation="10" result="blur" />
      <feFlood flood-color="#65f1dd" flood-opacity="0.55" result="flood" />
      <feComposite in="flood" in2="blur" operator="in" result="glow" />
      <feMerge>
        <feMergeNode in="glow" />
        <feMergeNode in="SourceGraphic" />
      </feMerge>
    </filter>
    <clipPath id="circle-clip">
      <circle cx="256" cy="256" r="240" />
    </clipPath>
  </defs>
  <g clip-path="url(#circle-clip)">
    <circle cx="256" cy="256" r="240" fill="url(#panel-fill)" />
    <circle cx="256" cy="256" r="240" fill="url(#panel-sheen)" />
    <g opacity="0.26">
      <path d="M 32 0 L 0 0 0 32 M 64 0 L 32 0 32 32 M 96 0 L 64 0 64 32 M 128 0 L 96 0 96 32 M 160 0 L 128 0 128 32 M 192 0 L 160 0 160 32 M 224 0 L 192 0 192 32 M 256 0 L 224 0 224 32 M 288 0 L 256 0 256 32 M 320 0 L 288 0 288 32 M 352 0 L 320 0 320 32 M 384 0 L 352 0 352 32 M 416 0 L 384 0 384 32 M 448 0 L 416 0 416 32 M 480 0 L 448 0 448 32 M 512 0 L 480 0 480 32 M 32 32 L 0 32 0 64 M 64 32 L 32 32 32 64 M 96 32 L 64 32 64 64 M 128 32 L 96 32 96 64 M 160 32 L 128 32 128 64 M 192 32 L 160 32 160 64 M 224 32 L 192 32 192 64 M 256 32 L 224 32 224 64 M 288 32 L 256 32 256 64 M 320 32 L 288 32 288 64 M 352 32 L 320 32 320 64 M 384 32 L 352 32 352 64 M 416 32 L 384 32 384 64 M 448 32 L 416 32 416 64 M 480 32 L 448 32 448 64 M 512 32 L 480 32 480 64 M 32 64 L 0 64 0 96 M 64 64 L 32 64 32 96 M 96 64 L 64 64 64 96 M 128 64 L 96 64 96 96 M 160 64 L 128 64 128 96 M 192 64 L 160 64 160 96 M 224 64 L 192 64 192 96 M 256 64 L 224 64 224 96 M 288 64 L 256 64 256 96 M 320 64 L 288 64 288 96 M 352 64 L 320 64 320 96 M 384 64 L 352 64 352 96 M 416 64 L 384 64 384 96 M 448 64 L 416 64 416 96 M 480 64 L 448 64 448 96 M 512 64 L 480 64 480 96 M 32 96 L 0 96 0 128 M 64 96 L 32 96 32 128 M 96 96 L 64 96 64 128 M 128 96 L 96 96 96 128 M 160 96 L 128 96 128 128 M 192 96 L 160 96 160 128 M 224 96 L 192 96 192 128 M 256 96 L 224 96 224 128 M 288 96 L 256 96 256 128 M 320 96 L 288 96 288 128 M 352 96 L 320 96 320 128 M 384 96 L 352 96 352 128 M 416 96 L 384 96 384 128 M 448 96 L 416 96 416 128 M 480 96 L 448 96 448 128 M 512 96 L 480 96 480 128 M 32 128 L 0 128 0 160 M 64 128 L 32 128 32 160 M 96 128 L 64 128 64 160 M 128 128 L 96 128 96 160 M 160 128 L 128 128 128 160 M 192 128 L 160 128 160 160 M 224 128 L 192 128 192 160 M 256 128 L 224 128 224 160 M 288 128 L 256 128 256 160 M 320 128 L 288 128 288 160 M 352 128 L 320 128 320 160 M 384 128 L 352 128 352 160 M 416 128 L 384 128 384 160 M 448 128 L 416 128 416 160 M 480 128 L 448 128 448 160 M 512 128 L 480 128 480 160 M 32 160 L 0 160 0 192 M 64 160 L 32 160 32 192 M 96 160 L 64 160 64 192 M 128 160 L 96 160 96 192 M 160 160 L 128 160 128 192 M 192 160 L 160 160 160 192 M 224 160 L 192 160 192 192 M 256 160 L 224 160 224 192 M 288 160 L 256 160 256 192 M 320 160 L 288 160 288 192 M 352 160 L 320 160 320 192 M 384 160 L 352 160 352 192 M 416 160 L 384 160 384 192 M 448 160 L 416 160 416 192 M 480 160 L 448 160 448 192 M 512 160 L 480 160 480 192 M 32 192 L 0 192 0 224 M 64 192 L 32 192 32 224 M 96 192 L 64 192 64 224 M 128 192 L 96 192 96 224 M 160 192 L 128 192 128 224 M 192 192 L 160 192 160 224 M 224 192 L 192 192 192 224 M 256 192 L 224 192 224 224 M 288 192 L 256 192 256 224 M 320 192 L 288 192 288 224 M 352 192 L 320 192 320 224 M 384 192 L 352 192 352 224 M 416 192 L 384 192 384 224 M 448 192 L 416 192 416 224 M 480 192 L 448 192 448 224 M 512 192 L 480 192 480 224 M 32 224 L 0 224 0 256 M 64 224 L 32 224 32 256 M 96 224 L 64 224 64 256 M 128 224 L 96 224 96 256 M 160 224 L 128 224 128 256 M 192 224 L 160 224 160 256 M 224 224 L 192 224 192 256 M 256 224 L 224 224 224 256 M 288 224 L 256 224 256 256 M 320 224 L 288 224 288 256 M 352 224 L 320 224 320 256 M 384 224 L 352 224 352 256 M 416 224 L 384 224 384 256 M 448 224 L 416 224 416 256 M 480 224 L 448 224 448 256 M 512 224 L 480 224 480 256 M 32 256 L 0 256 0 288 M 64 256 L 32 256 32 288 M 96 256 L 64 256 64 288 M 128 256 L 96 256 96 288 M 160 256 L 128 256 128 288 M 192 256 L 160 256 160 288 M 224 256 L 192 256 192 288 M 256 256 L 224 256 224 288 M 288 256 L 256 256 256 288 M 320 256 L 288 256 288 288 M 352 256 L 320 256 320 288 M 384 256 L 352 256 352 288 M 416 256 L 384 256 384 288 M 448 256 L 416 256 416 288 M 480 256 L 448 256 448 288 M 512 256 L 480 256 480 288 M 32 288 L 0 288 0 320 M 64 288 L 32 288 32 320 M 96 288 L 64 288 64 320 M 128 288 L 96 288 96 320 M 160 288 L 128 288 128 320 M 192 288 L 160 288 160 320 M 224 288 L 192 288 192 320 M 256 288 L 224 288 224 320 M 288 288 L 256 288 256 320 M 320 288 L 288 288 288 320 M 352 288 L 320 288 320 320 M 384 288 L 352 288 352 320 M 416 288 L 384 288 384 320 M 448 288 L 416 288 416 320 M 480 288 L 448 288 448 320 M 512 288 L 480 288 480 320 M 32 320 L 0 320 0 352 M 64 320 L 32 320 32 352 M 96 320 L 64 320 64 352 M 128 320 L 96 320 96 352 M 160 320 L 128 320 128 352 M 192 320 L 160 320 160 352 M 224 320 L 192 320 192 352 M 256 320 L 224 320 224 352 M 288 320 L 256 320 256 352 M 320 320 L 288 320 288 352 M 352 320 L 320 320 320 352 M 384 320 L 352 320 352 352 M 416 320 L 384 320 384 352 M 448 320 L 416 320 416 352 M 480 320 L 448 320 448 352 M 512 320 L 480 320 480 352 M 32 352 L 0 352 0 384 M 64 352 L 32 352 32 384 M 96 352 L 64 352 64 384 M 128 352 L 96 352 96 384 M 160 352 L 128 352 128 384 M 192 352 L 160 352 160 384 M 224 352 L 192 352 192 384 M 256 352 L 224 352 224 384 M 288 352 L 256 352 256 384 M 320 352 L 288 352 288 384 M 352 352 L 320 352 320 384 M 384 352 L 352 352 352 384 M 416 352 L 384 352 384 384 M 448 352 L 416 352 416 384 M 480 352 L 448 352 448 384 M 512 352 L 480 352 480 384 M 32 384 L 0 384 0 416 M 64 384 L 32 384 32 416 M 96 384 L 64 384 64 416 M 128 384 L 96 384 96 416 M 160 384 L 128 384 128 416 M 192 384 L 160 384 160 416 M 224 384 L 192 384 192 416 M 256 384 L 224 384 224 416 M 288 384 L 256 384 256 416 M 320 384 L 288 384 288 416 M 352 384 L 320 384 320 416 M 384 384 L 352 384 352 416 M 416 384 L 384 384 384 416 M 448 384 L 416 384 416 416 M 480 384 L 448 384 448 416 M 512 384 L 480 384 480 416 M 32 416 L 0 416 0 448 M 64 416 L 32 416 32 448 M 96 416 L 64 416 64 448 M 128 416 L 96 416 96 448 M 160 416 L 128 416 128 448 M 192 416 L 160 416 160 448 M 224 416 L 192 416 192 448 M 256 416 L 224 416 224 448 M 288 416 L 256 416 256 448 M 320 416 L 288 416 288 448 M 352 416 L 320 416 320 448 M 384 416 L 352 416 352 448 M 416 416 L 384 416 384 448 M 448 416 L 416 416 416 448 M 480 416 L 448 416 448 448 M 512 416 L 480 416 480 448 M 32 448 L 0 448 0 480 M 64 448 L 32 448 32 480 M 96 448 L 64 448 64 480 M 128 448 L 96 448 96 480 M 160 448 L 128 448 128 480 M 192 448 L 160 448 160 480 M 224 448 L 192 448 192 480 M 256 448 L 224 448 224 480 M 288 448 L 256 448 256 480 M 320 448 L 288 448 288 480 M 352 448 L 320 448 320 480 M 384 448 L 352 448 352 480 M 416 448 L 384 448 384 480 M 448 448 L 416 448 416 480 M 480 448 L 448 448 448 480 M 512 448 L 480 448 480 480 M 32 480 L 0 480 0 512 M 64 480 L 32 480 32 512 M 96 480 L 64 480 64 512 M 128 480 L 96 480 96 512 M 160 480 L 128 480 128 512 M 192 480 L 160 480 160 512 M 224 480 L 192 480 192 512 M 256 480 L 224 480 224 512 M 288 480 L 256 480 256 512 M 320 480 L 288 480 288 512 M 352 480 L 320 480 320 512 M 384 480 L 352 480 352 512 M 416 480 L 384 480 384 512 M 448 480 L 416 480 416 512 M 480 480 L 448 480 448 512 M 512 480 L 480 480 480 512" fill="none" stroke="#d7e3ef" stroke-width="2" stroke-opacity="0.75" />
    </g>
    <line x1="256" y1="16" x2="256" y2="496" stroke="#adc8db" stroke-width="2" opacity="0.28" stroke-dasharray="8 10" />
    <line x1="16" y1="256" x2="496" y2="256" stroke="#adc8db" stroke-width="2" opacity="0.28" stroke-dasharray="8 10" />
    <path id="waveform-path" d="M 16 256 L 17.2 250.55393491414137 L 18.4 245.116606477026 L 19.6 239.6967373219512 L 20.8 234.30302207380586 L 22 228.94411340103989 L 23.2 223.6286081349403 L 24.4 218.36503347848222 L 25.6 213.16183332687854 L 26.799999999999997 208.0273547217729 L 28 202.9698344608064 L 29.2 197.99738588403935 L 30.4 193.11798585842513 L 31.6 188.33946198121598 L 32.8 183.66948002282933 L 34 179.11553162931875 L 35.2 174.68492230417743 L 36.400000000000006 170.38475968875423 L 37.599999999999994 166.22194216008236 L 38.8 162.20314776441302 L 40 158.33482350420633 L 41.2 154.62317499576574 L 42.4 151.07415651410736 L 43.6 147.69346144103412 L 44.8 144.4865131317385 L 46 141.45845621458506 L 47.2 138.61414833803053 L 48.400000000000006 135.95815237792084 L 49.6 133.49472911766588 L 50.8 131.22783041303515 L 52 129.16109285253918 L 53.2 127.29783192356686 L 54.4 125.64103669363689 L 55.6 124.19336501529702 L 56.800000000000004 122.95713926236209 L 58 121.93434260433162 L 59.199999999999996 121.12661582496347 L 60.4 120.535254690107 L 61.6 120.16120786901874 L 62.800000000000004 120.00507541249456 L 64 120.06710779026051 L 65.19999999999999 120.34720548916599 L 66.4 120.84491917282392 L 67.6 121.55945040244225 L 68.8 122.48965291768974 L 70 123.6340344755418 L 71.2 124.99075924415621 L 72.4 126.55765074793865 L 73.6 128.33219535907313 L 74.8 130.31154632991664 L 76 132.49252835978893 L 77.2 134.8716426888313 L 78.4 137.44507271076276 L 79.6 140.20869009552996 L 80.80000000000001 143.15806141202785 L 82 146.2884552402679 L 83.2 149.594849761584 L 84.39999999999999 153.07194081469927 L 85.6 156.71415040473113 L 86.8 160.5156356514833 L 88 164.4702981626708 L 89.2 168.5717938170401 L 90.4 172.81354294169185 L 91.6 177.18874086727755 L 92.8 181.69036884413939 L 94 186.3112053018798 L 95.2 191.04383743429935 L 96.4 195.880673091117 L 97.60000000000001 200.81395295739676 L 98.8 205.8357630011423 L 100 210.93804716909028 L 101.19999999999999 216.11262031033604 L 102.39999999999999 221.35118130705996 L 103.6 226.6453263912888 L 104.8 231.98656262633006 L 106 237.36632153125228 L 107.2 242.77597282655364 L 108.4 248.20683827896923 L 109.60000000000001 253.65020562320638 L 110.80000000000001 259.09734253827406 L 112 264.53951065598653 L 113.2 269.9679795791679 L 114.39999999999999 275.37404088706865 L 115.6 280.74902210552875 L 116.8 286.08430061947354 L 118 291.3713175054252 L 119.2 296.6015912618402 L 120.4 301.7667314152446 L 121.6 306.8584519803408 L 122.8 311.86858475249403 L 124 316.7890924112724 L 125.2 321.61208141402176 L 126.4 326.32981465878936 L 127.60000000000001 330.93472389628437 L 128.8 335.4194218709621 L 130 339.77671417175566 L 131.2 343.9996107734444 L 132.39999999999998 348.08133725014335 L 133.6 352.01534564292615 L 134.8 355.79532496414583 L 136 359.41521132160415 L 137.2 362.869197646326 L 138.4 366.1517430083358 L 139.60000000000002 369.2575815054896 L 140.8 372.1817307111041 L 142 374.9194996668306 L 143.2 377.46649640795135 L 144.4 379.81863500902745 L 145.60000000000002 381.9721421385931 L 146.8 383.92356311238336 L 148 385.6697674353842 L 149.20000000000002 387.2079538238129 L 150.4 388.5356546989745 L 151.6 389.6507401457836 L 152.79999999999998 390.551421329602 L 154 391.23625336591067 L 155.2 391.70413763821205 L 156.39999999999998 391.95432356044535 L 157.6 391.9864097810865 L 158.79999999999998 391.80034482700114 L 160 391.39642718601885 L 161.2 390.77530482809516 L 162.4 389.937974165829 L 163.6 388.8857784560057 L 164.8 387.62040564472574 L 166 386.14388565958046 L 167.2 384.45858715321515 L 168.4 382.56721370350607 L 169.6 380.47279947644483 L 170.8 378.1787043586902 L 172 375.688608567594 L 173.20000000000002 373.00650674734794 L 174.4 370.13670156072396 L 175.60000000000002 367.0837967866856 L 176.8 363.8526899349461 L 178 360.44856438931964 L 179.20000000000002 356.8768810924686 L 180.4 353.1433697853884 L 181.6 349.25401981568257 L 182.79999999999998 345.21507052937216 L 184 341.033001261656 L 185.2 336.7145209426767 L 186.39999999999998 332.2665573349668 L 187.6 327.69624591984166 L 188.79999999999998 323.0109184505678 L 190 318.21809119066756 L 191.2 313.3254528562317 L 192.4 308.3408522815806 L 193.6 303.2722858280612 L 194.8 298.12788455618005 L 196 292.9159011816502 L 197.2 287.64469683627607 L 198.4 282.32272765491706 L 199.6 276.9585312100458 L 200.8 271.56071281566227 L 202 266.137931722537 L 203.20000000000002 260.6988872269283 L 204.4 255.25230471505674 L 205.60000000000002 249.80692166572697 L 206.8 244.37147363355064 L 208 238.95468023525476 L 209.20000000000002 233.56523116155893 L 210.4 228.21177223706047 L 211.6 222.90289155048907 L 212.79999999999998 217.64710567758254 L 214 212.45284601868576 L 215.2 207.3284452729871 L 216.39999999999998 202.28212407109388 L 217.6 197.32197778738976 L 218.79999999999998 192.4559635533288 L 220 187.69188749250145 L 221.2 183.0373921979497 L 222.4 178.49994447181854 L 223.6 174.08682334701498 L 224.8 169.80510841008862 L 226 165.66166844406575 L 227.2 161.6631504094586 L 228.4 157.81596878112398 L 229.6 154.12629525807904 L 230.8 150.60004886278148 L 232 147.24288644575577 L 233.20000000000002 144.0601936108001 L 234.4 141.05707607533043 L 235.60000000000002 138.23835147972167 L 236.8 135.60854165878612 L 238 133.1718653877873 L 239.20000000000002 130.93223161462527 L 240.4 128.89323318905127 L 241.6 127.0581410989717 L 242.79999999999998 125.42989922308595 L 244 124.01111960827825 L 245.2 122.80407827933783 L 246.39999999999998 121.81071158772997 L 247.6 121.03261310527603 L 248.79999999999998 120.47103106772457 L 250 120.1268663723151 L 251.2 120.0006711325473 L 252.4 120.09264779247303 L 253.6 120.40264880193317 L 254.8 120.9301768532593 L 256 121.67438567906126 L 257.2 122.63408140982037 L 258.4 123.80772448911063 L 259.59999999999997 125.19343214337485 L 260.8 126.78898140229501 L 262 128.59181266490995 L 263.20000000000005 130.59903380576105 L 264.4 132.80742481447714 L 265.6 135.21344296135783 L 266.79999999999995 137.81322848066617 L 268 140.6026107625155 L 269.2 143.57711504341628 L 270.4 146.73196958475057 L 271.6 150.06211332765648 L 272.8 153.56220401204595 L 274 157.22662674672736 L 275.20000000000005 161.04950301688768 L 276.4 165.02470011448253 L 277.6 169.14584097640716 L 278.8 173.40631441466311 L 280 177.79928572211395 L 281.2 182.3177076368103 L 282.40000000000003 186.9543316473002 L 283.6 191.70171962078564 L 284.8 196.55225573547304 L 286 201.4981586979726 L 287.2 206.53149422615232 L 288.4 211.64418777741653 L 289.59999999999997 216.82803750199116 L 290.8 222.07472740044102 L 292 227.37584066430213 L 293.2 232.72287317843774 L 294.4 238.1072471634492 L 295.6 243.52032493626365 L 296.79999999999995 248.95342276681532 L 298 254.39782480860197 L 299.2 259.84479708075685 L 300.40000000000003 265.2856014792171 L 301.59999999999997 270.7115097945024 L 302.8 276.11381771362477 L 304 281.4838587836584 L 305.20000000000005 286.81301831457984 L 306.4 292.0927471990635 L 307.6 297.31457562707357 L 308.8 302.4701266732414 L 310 307.5511297352415 L 311.2 312.5494338015964 L 312.40000000000003 317.4570205276395 L 313.6 322.26601709864497 L 314.8 326.96870885950244 L 316 331.5575516906656 L 317.2 336.02518411052904 L 318.4 340.36443908481147 L 319.59999999999997 344.56835552400696 L 320.8 348.6301894504555 L 322 352.5434248171192 L 323.2 356.3017839607116 L 324.4 359.89923767240487 L 325.6 363.33001486996795 L 326.79999999999995 366.5886118558098 L 328 369.66980114608464 L 329.2 372.5686398566885 L 330.40000000000003 375.28047763269956 L 331.59999999999997 377.8009641085372 L 332.8 380.1260558868763 L 334 382.2520230251173 L 335.20000000000005 384.17545501900935 L 336.4 385.89326627382513 L 337.6 387.4027010543132 L 338.8 388.70133790548323 L 340 389.78709353713685 L 341.2 390.65822616590845 L 342.40000000000003 391.3133383094568 L 343.6 391.75137902832466 L 344.8 391.97164561186946 L 346 391.97378470556083 L 347.2 391.75779287783683 L 348.4 391.3240166256086 L 349.59999999999997 390.6731518184056 L 350.8 389.8062425820526 L 352 388.72467962366966 L 353.2 387.4301980006811 L 354.4 385.9248743374143 L 355.6 384.21112349375096 L 356.79999999999995 382.29169469117846 L 358 380.1696671024521 L 359.2 377.84844491194593 L 360.40000000000003 375.33175185461624 L 361.59999999999997 372.62362524233686 L 362.8 369.72840948719056 L 364 366.65074913210725 L 365.20000000000005 363.3955814000264 L 366.4 359.9681282735406 L 367.6 356.37388811772223 L 368.8 352.6186268595748 L 370 348.7083687382568 L 371.2 344.6493866409198 L 372.40000000000003 340.4481920396593 L 373.6 336.1115245457279 L 374.8 331.64634109776176 L 376 327.05980480136924 L 377.2 322.3592734379829 L 378.4 317.55228766141045 L 379.59999999999997 312.6465589010204 L 380.8 307.6499569909651 L 382 302.57049754529095 L 383.2 297.4163290991844 L 384.4 292.19572003698715 L 385.6 286.9170453279442 L 386.79999999999995 281.58877309097016 L 388 276.21945100998164 L 389.2 270.8176926215914 L 390.40000000000003 265.3921634971594 L 391.59999999999997 259.95156734137186 L 392.8 254.5046320296426 L 394 249.06009560674278 L 395.20000000000005 243.6266922691146 L 396.4 238.2131383533597 L 397.6 232.82811835337716 L 398.8 227.48027098858665 L 400 222.17817534558 L 401.2 216.93033711544004 L 402.40000000000003 211.74517494879905 L 403.6 206.63100695052978 L 404.8 201.59603733573215 L 406 196.64834326842578 L 407.2 191.79586190405638 L 408.4 187.0463776566079 L 409.59999999999997 182.40750971074516 L 410.8 177.88669979901584 L 412 173.49120026372836 L 413.2 169.22806242264755 L 414.4 165.1041252571805 L 415.6 161.12600444119136 L 416.79999999999995 157.30008172805321 L 418 153.63249471295333 L 419.2 150.12912698688507 L 420.40000000000003 146.79559869811266 L 421.59999999999997 143.63725753625738 L 422.8 140.6591701534627 L 424 137.86611403640615 L 425.20000000000005 135.26256984219123 L 426.4 132.85271421042012 L 427.6 130.64041306297293 L 428.8 128.629215402246 L 430 126.82234761779523 L 431.2 125.22270831052077 L 432.40000000000003 123.83286364269244 L 433.6 122.65504322127961 L 434.8 121.69113652118608 L 436 120.94268985413004 L 437.2 120.41090388803045 L 438.4 120.09663172087986 L 439.59999999999997 120.0003775121937 L 440.8 120.12229567423066 L 442 120.46219062428284 L 443.2 121.01951709843195 L 444.4 121.79338102626866 L 445.6 122.78254096517239 L 446.79999999999995 123.98541009184936 L 448 125.40005874793565 L 449.2 127.02421753557996 L 450.40000000000003 128.85528095804176 L 451.59999999999997 130.89031159946245 L 452.8 133.12604483710717 L 454 135.5588940785144 L 455.20000000000005 138.18495651515516 L 456.4 141.00001938336868 L 457.6 143.9995667225338 L 458.8 147.17878661963064 L 460 150.532578928576 L 461.2 154.0555634519428 L 462.40000000000003 157.74208857194424 L 463.6 161.58624031683186 L 464.8 165.58185184816745 L 466 169.72251335374403 L 467.2 174.0015823302923 L 468.4 178.4121942394703 L 469.59999999999997 182.94727352004463 L 470.8 187.59954493859993 L 472 192.36154526056174 L 473.2 197.2256352228158 L 474.4 202.1840117887133 L 475.6 207.22872066580484 L 476.79999999999995 212.35166906621907 L 478 217.54463868922028 L 479.2 222.79929890511224 L 480.40000000000003 228.10722011934405 L 481.59999999999997 233.45988729537535 L 482.8 238.84871361461026 L 484 244.26505425148198 L 485.20000000000005 249.70022024159707 L 486.4 255.14549242068372 L 487.6 260.59213541199006 L 488.8 266.0314116396891 L 490 271.454595345813 L 491.2 276.85298658822626 L 492.40000000000003 282.2179251971883 L 493.6 287.54080466810956 L 494.8 292.8130859682192 L 496 298.02631123499253" fill="none" stroke="#18e0c8" stroke-opacity="0.98" stroke-width="17" stroke-linecap="round" stroke-linejoin="round" filter="url(#wave-glow)" />
  </g>
  <circle cx="256" cy="256" r="240" fill="none" stroke="#adc8db" stroke-width="6" opacity="0.7" />
</svg>