<?xml version="1.0" encoding="UTF-8"?>
<svg xmlns="http://www.w3.org/2000/svg" viewBox="0 0 512 512" width="512" height="512" aria-label="AI Power Idle logo">
  <defs>
    <radialGradient id="panel-fill" cx="34%" cy="30%" r="78%">
      <stop offset="0%" stop-color="#13202d" stop-opacity="0.72" />
      <stop offset="62%" stop-color="#0d1621" stop-opacity="0.5" />
      <stop offset="100%" stop-color="#0d1621" stop-opacity="0.14" />
    </radialGradient>
    <radialGradient id="panel-sheen" cx="30%" cy="24%" r="64%">
      <stop offset="0%" stop-color="#ffffff" stop-opacity="0.18" />
      <stop offset="52%" stop-color="#ffffff" stop-opacity="0.04" />
      <stop offset="100%" stop-color="#ffffff" stop-opacity="0" />
    </radialGradient>
    <filter id="wave-glow" x="-30%" y="-30%" width="160%" height="160%">
      <feGaussianBlur stdDeviation="5.5" result="blur" />
      <feFlood flood-color="#ced9e7" flood-opacity="0.55" result="flood" />
      <feComposite in="flood" in2="blur" operator="in" result="glow" />
      <feMerge>
        <feMergeNode in="glow" />
        <feMergeNode in="SourceGraphic" />
      </feMerge>
    </filter>
    <clipPath id="circle-clip">
      <circle cx="256" cy="256" r="240" />
    </clipPath>
  </defs>
  <g clip-path="url(#circle-clip)">
    <circle cx="256" cy="256" r="240" fill="url(#panel-fill)" />
    <circle cx="256" cy="256" r="240" fill="url(#panel-sheen)" />
    <g opacity="0.18">
      <path d="M 32 0 L 0 0 0 32 M 64 0 L 32 0 32 32 M 96 0 L 64 0 64 32 M 128 0 L 96 0 96 32 M 160 0 L 128 0 128 32 M 192 0 L 160 0 160 32 M 224 0 L 192 0 192 32 M 256 0 L 224 0 224 32 M 288 0 L 256 0 256 32 M 320 0 L 288 0 288 32 M 352 0 L 320 0 320 32 M 384 0 L 352 0 352 32 M 416 0 L 384 0 384 32 M 448 0 L 416 0 416 32 M 480 0 L 448 0 448 32 M 512 0 L 480 0 480 32 M 32 32 L 0 32 0 64 M 64 32 L 32 32 32 64 M 96 32 L 64 32 64 64 M 128 32 L 96 32 96 64 M 160 32 L 128 32 128 64 M 192 32 L 160 32 160 64 M 224 32 L 192 32 192 64 M 256 32 L 224 32 224 64 M 288 32 L 256 32 256 64 M 320 32 L 288 32 288 64 M 352 32 L 320 32 320 64 M 384 32 L 352 32 352 64 M 416 32 L 384 32 384 64 M 448 32 L 416 32 416 64 M 480 32 L 448 32 448 64 M 512 32 L 480 32 480 64 M 32 64 L 0 64 0 96 M 64 64 L 32 64 32 96 M 96 64 L 64 64 64 96 M 128 64 L 96 64 96 96 M 160 64 L 128 64 128 96 M 192 64 L 160 64 160 96 M 224 64 L 192 64 192 96 M 256 64 L 224 64 224 96 M 288 64 L 256 64 256 96 M 320 64 L 288 64 288 96 M 352 64 L 320 64 320 96 M 384 64 L 352 64 352 96 M 416 64 L 384 64 384 96 M 448 64 L 416 64 416 96 M 480 64 L 448 64 448 96 M 512 64 L 480 64 480 96 M 32 96 L 0 96 0 128 M 64 96 L 32 96 32 128 M 96 96 L 64 96 64 128 M 128 96 L 96 96 96 128 M 160 96 L 128 96 128 128 M 192 96 L 160 96 160 128 M 224 96 L 192 96 192 128 M 256 96 L 224 96 224 128 M 288 96 L 256 96 256 128 M 320 96 L 288 96 288 128 M 352 96 L 320 96 320 128 M 384 96 L 352 96 352 128 M 416 96 L 384 96 384 128 M 448 96 L 416 96 416 128 M 480 96 L 448 96 448 128 M 512 96 L 480 96 480 128 M 32 128 L 0 128 0 160 M 64 128 L 32 128 32 160 M 96 128 L 64 128 64 160 M 128 128 L 96 128 96 160 M 160 128 L 128 128 128 160 M 192 128 L 160 128 160 160 M 224 128 L 192 128 192 160 M 256 128 L 224 128 224 160 M 288 128 L 256 128 256 160 M 320 128 L 288 128 288 160 M 352 128 L 320 128 320 160 M 384 128 L 352 128 352 160 M 416 128 L 384 128 384 160 M 448 128 L 416 128 416 160 M 480 128 L 448 128 448 160 M 512 128 L 480 128 480 160 M 32 160 L 0 160 0 192 M 64 160 L 32 160 32 192 M 96 160 L 64 160 64 192 M 128 160 L 96 160 96 192 M 160 160 L 128 160 128 192 M 192 160 L 160 160 160 192 M 224 160 L 192 160 192 192 M 256 160 L 224 160 224 192 M 288 160 L 256 160 256 192 M 320 160 L 288 160 288 192 M 352 160 L 320 160 320 192 M 384 160 L 352 160 352 192 M 416 160 L 384 160 384 192 M 448 160 L 416 160 416 192 M 480 160 L 448 160 448 192 M 512 160 L 480 160 480 192 M 32 192 L 0 192 0 224 M 64 192 L 32 192 32 224 M 96 192 L 64 192 64 224 M 128 192 L 96 192 96 224 M 160 192 L 128 192 128 224 M 192 192 L 160 192 160 224 M 224 192 L 192 192 192 224 M 256 192 L 224 192 224 224 M 288 192 L 256 192 256 224 M 320 192 L 288 192 288 224 M 352 192 L 320 192 320 224 M 384 192 L 352 192 352 224 M 416 192 L 384 192 384 224 M 448 192 L 416 192 416 224 M 480 192 L 448 192 448 224 M 512 192 L 480 192 480 224 M 32 224 L 0 224 0 256 M 64 224 L 32 224 32 256 M 96 224 L 64 224 64 256 M 128 224 L 96 224 96 256 M 160 224 L 128 224 128 256 M 192 224 L 160 224 160 256 M 224 224 L 192 224 192 256 M 256 224 L 224 224 224 256 M 288 224 L 256 224 256 256 M 320 224 L 288 224 288 256 M 352 224 L 320 224 320 256 M 384 224 L 352 224 352 256 M 416 224 L 384 224 384 256 M 448 224 L 416 224 416 256 M 480 224 L 448 224 448 256 M 512 224 L 480 224 480 256 M 32 256 L 0 256 0 288 M 64 256 L 32 256 32 288 M 96 256 L 64 256 64 288 M 128 256 L 96 256 96 288 M 160 256 L 128 256 128 288 M 192 256 L 160 256 160 288 M 224 256 L 192 256 192 288 M 256 256 L 224 256 224 288 M 288 256 L 256 256 256 288 M 320 256 L 288 256 288 288 M 352 256 L 320 256 320 288 M 384 256 L 352 256 352 288 M 416 256 L 384 256 384 288 M 448 256 L 416 256 416 288 M 480 256 L 448 256 448 288 M 512 256 L 480 256 480 288 M 32 288 L 0 288 0 320 M 64 288 L 32 288 32 320 M 96 288 L 64 288 64 320 M 128 288 L 96 288 96 320 M 160 288 L 128 288 128 320 M 192 288 L 160 288 160 320 M 224 288 L 192 288 192 320 M 256 288 L 224 288 224 320 M 288 288 L 256 288 256 320 M 320 288 L 288 288 288 320 M 352 288 L 320 288 320 320 M 384 288 L 352 288 352 320 M 416 288 L 384 288 384 320 M 448 288 L 416 288 416 320 M 480 288 L 448 288 448 320 M 512 288 L 480 288 480 320 M 32 320 L 0 320 0 352 M 64 320 L 32 320 32 352 M 96 320 L 64 320 64 352 M 128 320 L 96 320 96 352 M 160 320 L 128 320 128 352 M 192 320 L 160 320 160 352 M 224 320 L 192 320 192 352 M 256 320 L 224 320 224 352 M 288 320 L 256 320 256 352 M 320 320 L 288 320 288 352 M 352 320 L 320 320 320 352 M 384 320 L 352 320 352 352 M 416 320 L 384 320 384 352 M 448 320 L 416 320 416 352 M 480 320 L 448 320 448 352 M 512 320 L 480 320 480 352 M 32 352 L 0 352 0 384 M 64 352 L 32 352 32 384 M 96 352 L 64 352 64 384 M 128 352 L 96 352 96 384 M 160 352 L 128 352 128 384 M 192 352 L 160 352 160 384 M 224 352 L 192 352 192 384 M 256 352 L 224 352 224 384 M 288 352 L 256 352 256 384 M 320 352 L 288 352 288 384 M 352 352 L 320 352 320 384 M 384 352 L 352 352 352 384 M 416 352 L 384 352 384 384 M 448 352 L 416 352 416 384 M 480 352 L 448 352 448 384 M 512 352 L 480 352 480 384 M 32 384 L 0 384 0 416 M 64 384 L 32 384 32 416 M 96 384 L 64 384 64 416 M 128 384 L 96 384 96 416 M 160 384 L 128 384 128 416 M 192 384 L 160 384 160 416 M 224 384 L 192 384 192 416 M 256 384 L 224 384 224 416 M 288 384 L 256 384 256 416 M 320 384 L 288 384 288 416 M 352 384 L 320 384 320 416 M 384 384 L 352 384 352 416 M 416 384 L 384 384 384 416 M 448 384 L 416 384 416 416 M 480 384 L 448 384 448 416 M 512 384 L 480 384 480 416 M 32 416 L 0 416 0 448 M 64 416 L 32 416 32 448 M 96 416 L 64 416 64 448 M 128 416 L 96 416 96 448 M 160 416 L 128 416 128 448 M 192 416 L 160 416 160 448 M 224 416 L 192 416 192 448 M 256 416 L 224 416 224 448 M 288 416 L 256 416 256 448 M 320 416 L 288 416 288 448 M 352 416 L 320 416 320 448 M 384 416 L 352 416 352 448 M 416 416 L 384 416 384 448 M 448 416 L 416 416 416 448 M 480 416 L 448 416 448 448 M 512 416 L 480 416 480 448 M 32 448 L 0 448 0 480 M 64 448 L 32 448 32 480 M 96 448 L 64 448 64 480 M 128 448 L 96 448 96 480 M 160 448 L 128 448 128 480 M 192 448 L 160 448 160 480 M 224 448 L 192 448 192 480 M 256 448 L 224 448 224 480 M 288 448 L 256 448 256 480 M 320 448 L 288 448 288 480 M 352 448 L 320 448 320 480 M 384 448 L 352 448 352 480 M 416 448 L 384 448 384 480 M 448 448 L 416 448 416 480 M 480 448 L 448 448 448 480 M 512 448 L 480 448 480 480 M 32 480 L 0 480 0 512 M 64 480 L 32 480 32 512 M 96 480 L 64 480 64 512 M 128 480 L 96 480 96 512 M 160 480 L 128 480 128 512 M 192 480 L 160 480 160 512 M 224 480 L 192 480 192 512 M 256 480 L 224 480 224 512 M 288 480 L 256 480 256 512 M 320 480 L 288 480 288 512 M 352 480 L 320 480 320 512 M 384 480 L 352 480 352 512 M 416 480 L 384 480 384 512 M 448 480 L 416 480 416 512 M 480 480 L 448 480 448 512 M 512 480 L 480 480 480 512" fill="none" stroke="#dce6ef" stroke-width="2" stroke-opacity="0.75" />
    </g>
    <line x1="256" y1="16" x2="256" y2="496" stroke="#bfd0de" stroke-width="2" opacity="0.18" stroke-dasharray="8 10" />
    <line x1="16" y1="256" x2="496" y2="256" stroke="#bfd0de" stroke-width="2" opacity="0.18" stroke-dasharray="8 10" />
    <path id="waveform-path" d="M 16 256 L 17.2 254.55839453609624 L 18.4 253.11910171450688 L 19.6 251.6844304675753 L 20.8 250.2566823136545 L 22 248.83814766498114 L 23.2 247.43110215336654 L 24.4 246.03780297959824 L 25.6 244.66048529240902 L 26.799999999999997 243.30135860282223 L 28 241.96260323962522 L 29.2 240.6463668516575 L 30.4 239.3547609625243 L 31.6 238.08985758326304 L 32.8 236.853685888396 L 34 235.64822896070203 L 35.2 234.47542060992933 L 36.400000000000006 233.3371422705526 L 37.599999999999994 232.23521998355122 L 38.8 231.1714214670505 L 40 230.1474532805252 L 41.2 229.16495808711446 L 42.4 228.22551201844018 L 43.6 227.3306221461561 L 44.8 226.48172406428372 L 46 225.68017958621368 L 47.2 224.9272745600669 L 48.400000000000006 224.2242168059202 L 49.6 223.57213417820566 L 50.8 222.97207275639164 L 52 222.42499516684862 L 53.2 221.93177903859123 L 54.4 221.49321559537447 L 55.6 221.11000838640214 L 56.800000000000004 220.78277215768406 L 58 220.5120318658525 L 59.199999999999996 220.29822183601974 L 60.4 220.14168506502833 L 61.6 220.04267267121082 L 62.800000000000004 220.00134349154268 L 64 220.01776382683366 L 65.19999999999999 220.09190733536747 L 66.4 220.2236550751593 L 67.6 220.41279569476413 L 68.8 220.65902577232964 L 70 220.9619503023493 L 71.2 221.32108332933547 L 72.4 221.73584872739553 L 73.6 222.20558112446054 L 74.8 222.72952696968383 L 76 223.30684574229707 L 77.2 223.93661129998475 L 78.4 224.61781336461368 L 79.6 225.34935914293442 L 80.80000000000001 226.13007507965443 L 82 226.9587087400709 L 83.2 227.83393081924282 L 84.39999999999999 228.7543372744792 L 85.6 229.71845157772293 L 86.8 230.72472708421617 L 88 231.77154951364815 L 89.2 232.85723953980474 L 90.4 233.9800554845655 L 91.6 235.13819611192642 L 92.8 236.32980351756632 L 94 237.55296610932112 L 95.2 238.80572167378511 L 96.4 240.0860605241192 L 97.60000000000001 241.3919287240168 L 98.8 242.72123138265533 L 100 244.07183601534743 L 101.19999999999999 245.44157596450071 L 102.39999999999999 246.82825387539822 L 103.6 248.2296452212235 L 104.8 249.6435018716756 L 106 251.06755569944914 L 107.2 252.4995222187936 L 108.4 253.93710425031537 L 109.60000000000001 255.37799560614286 L 110.80000000000001 256.81988478954315 L 112 258.2604587030553 L 113.2 259.6974063591915 L 114.39999999999999 261.12842258775345 L 115.6 262.55121173381644 L 116.8 263.96349134044885 L 118 265.36299581025963 L 119.2 266.7474800398989 L 120.4 268.1147230216824 L 121.6 269.4625314065608 L 122.8 270.788743022719 L 124 272.09123034416035 L 125.2 273.36790390371164 L 126.4 274.6167156449736 L 127.60000000000001 275.83566220783996 L 128.8 277.0227881423135 L 130 278.17618904546475 L 131.2 279.29401461649996 L 132.39999999999998 280.3744716250379 L 133.6 281.4158267878334 L 134.8 282.41640954933274 L 136 283.3746147616011 L 137.2 284.28890525932155 L 138.4 285.15781432573596 L 139.60000000000002 285.9799480455708 L 140.8 286.75398754117464 L 142 287.47869108827865 L 143.2 288.15289610798715 L 144.4 288.77552103180136 L 145.60000000000002 289.3455670366864 L 146.8 289.8621196473956 L 148 290.324350203484 L 149.20000000000002 290.73151718865637 L 150.4 291.0829674203168 L 151.6 291.3781370974133 L 152.79999999999998 291.6165527048947 L 154 291.7978317733293 L 155.2 291.9216834924679 L 156.39999999999998 291.98790917776495 L 157.6 291.99640258911114 L 158.79999999999998 291.94715010126504 L 160 291.84023072571085 L 161.2 291.6758159839075 L 162.4 291.4541696321312 L 163.6 291.17564723835443 L 164.8 290.8406956118392 L 166 290.44985208635956 L 167.2 290.00374365820403 L 168.4 289.50308598033985 L 169.6 288.948682214353 L 170.8 288.3414217420062 L 172 287.68227873848076 L 173.20000000000002 286.9723106095921 L 174.4 286.2126562954858 L 175.60000000000002 285.40453444353443 L 176.8 284.5492414533681 L 178 283.64814939717286 L 179.20000000000002 282.7027038185946 L 180.4 281.7144214137793 L 181.6 280.6848875982689 L 182.79999999999998 279.6157539636573 L 184 278.5087356280854 L 185.2 277.36560848482617 L 186.39999999999998 276.1882063533736 L 187.6 274.97841803760514 L 188.79999999999998 273.7381842957385 L 190 272.46949472694143 L 191.2 271.17438457959076 L 192.4 269.85493148630076 L 193.6 268.51325213095737 L 194.8 267.1514988531065 L 196 265.77185619514273 L 197.2 264.3765373978378 L 198.4 262.967780849831 L 199.6 261.54784649677686 L 200.8 260.11901221591063 L 202 258.683570161848 L 203.20000000000002 257.24382308948105 L 204.4 255.80208065986795 L 205.60000000000002 254.36065573504538 L 206.8 252.92186066770458 L 208 251.48800359168507 L 209.20000000000002 250.06138471923617 L 210.4 248.64429265098659 L 211.6 247.23900070454124 L 212.79999999999998 245.84776326759538 L 214 244.47281218141683 L 215.2 243.1163531604966 L 216.39999999999998 241.78056225411308 L 217.6 240.46758235548552 L 218.79999999999998 239.17951976411643 L 220 237.91844080683862 L 221.2 236.6863685229867 L 222.4 235.4852794190108 L 223.6 234.31710029773927 L 224.8 233.1837051673764 L 226 232.08691223519386 L 227.2 231.02848099073904 L 228.4 230.0101093832387 L 229.6 229.0334310977268 L 230.8 228.1000129342657 L 232 227.21135229446477 L 233.20000000000002 226.36887477932945 L 234.4 225.57393190229334 L 235.60000000000002 224.82779892110278 L 236.8 224.13167279203162 L 238 223.48667024970842 L 239.20000000000002 222.8938260156361 L 240.4 222.35409113827828 L 241.6 221.86833146737487 L 242.79999999999998 221.4373262649345 L 244 221.06176695513247 L 245.2 220.74225601511884 L 246.39999999999998 220.47930600851674 L 247.6 220.2733387631613 L 248.79999999999998 220.12468469439767 L 250 220.03358227502457 L 251.2 220.0001776527331 L 252.4 220.02452441565464 L 253.6 220.1065835063941 L 254.8 220.24622328468627 L 256 220.44321973857504 L 257.2 220.697256843776 L 258.4 221.00792707064693 L 259.59999999999997 221.37473203795219 L 260.8 221.7970833123722 L 262 222.27430335247618 L 263.20000000000005 222.80562659564265 L 264.4 223.39020068618512 L 265.6 224.02708784271238 L 266.79999999999995 224.71526636252926 L 268 225.45363226066587 L 269.2 226.2410010409043 L 270.4 227.07610959596337 L 271.6 227.9576182337914 L 272.8 228.88411282671805 L 274 229.85410708001606 L 275.20000000000005 230.86604491623498 L 276.4 231.91830297148067 L 277.6 233.0091931996372 L 278.8 234.136965580352 L 280 235.29981092644192 L 281.2 236.4958637862145 L 282.40000000000003 237.72320543605005 L 283.6 238.97986695844327 L 284.8 240.2638324005664 L 286 241.57304200828688 L 287.2 242.9053955304521 L 288.4 244.25875558813968 L 289.59999999999997 245.63095110346825 L 290.8 247.0197807824697 L 292 248.42301664643293 L 293.2 249.83840760605705 L 294.4 251.26368307267774 L 295.6 252.69655660077566 L 296.79999999999995 254.1347295559217 L 298 255.575894802277 L 299.2 257.01774040372976 L 300.40000000000003 258.45795333273395 L 301.59999999999997 259.8942231808977 L 302.8 261.32424586537127 L 304 262.745727325086 L 305.20000000000005 264.1563872009182 L 306.4 265.5539624938698 L 307.6 266.9362111954018 L 308.8 268.30091588409334 L 310 269.64588728285804 L 311.2 270.96896777101085 L 312.40000000000003 272.26803484555165 L 313.6 273.5410045261119 L 314.8 274.7858346981036 L 316 276.0005283887056 L 317.2 277.18313697043413 L 318.4 278.331763287156 L 319.59999999999997 279.44456469753123 L 320.8 280.51975603100294 L 322 281.5556124515904 L 323.2 282.55047222489424 L 324.4 283.50273938387187 L 325.6 284.41088628910916 L 326.79999999999995 285.27345607947905 L 328 286.0890650092577 L 329.2 286.85640466794695 L 330.40000000000003 287.574244079244 L 331.59999999999997 288.2414316757893 L 332.8 288.8568971465261 L 334 289.41965315370754 L 335.20000000000005 289.9287969167966 L 336.4 290.38351166071845 L 337.6 290.7830679261417 L 338.8 291.12682473968675 L 340 291.41423064218327 L 341.2 291.6448245733287 L 342.40000000000003 291.8182366113268 L 343.6 291.9341885663212 L 344.8 291.9924944266713 L 346 291.99306065735436 L 347.2 291.9358863500156 L 348.4 291.8210632244258 L 349.59999999999997 291.6487754813427 L 350.8 291.41929950701393 L 352 291.13300342979494 L 353.2 290.79034652959206 L 354.4 290.3918785010802 L 355.6 289.9382385718752 L 356.79999999999995 289.43015447707666 L 358 288.86844129182555 L 359.2 288.2540001237504 L 360.40000000000003 287.58781666739844 L 361.59999999999997 286.8709596229715 L 362.8 286.1045789819034 L 364 285.2899041820284 L 365.20000000000005 284.4282421353011 L 366.4 283.52097513123135 L 367.6 282.56955861939707 L 368.8 281.57551887459334 L 370 280.5404505483621 L 371.2 279.4660141108317 L 372.40000000000003 278.3539331869686 L 373.6 277.2059917915162 L 374.8 276.02403146705456 L 376 274.8099483297742 L 377.2 273.56569002770135 L 378.4 272.2932526162557 L 379.59999999999997 270.99467735615247 L 380.8 269.6720474387849 L 382 268.3274846443417 L 383.2 266.9631459380194 L 384.4 265.58122000979074 L 385.6 264.1839237632793 L 386.79999999999995 262.77349875937443 L 388 261.3522076202893 L 389.2 259.922330399833 L 390.40000000000003 258.48616092571865 L 391.59999999999997 257.0460031197749 L 392.8 255.60416730196422 L 394 254.1629664841378 L 395.20000000000005 252.72471265947152 L 396.4 251.2917130935364 L 397.6 249.8662666229528 L 398.8 248.45065996756705 L 400 247.0471640620653 L 401.2 245.6580304129106 L 402.40000000000003 244.2854874864468 L 403.6 242.93173713396376 L 404.8 241.5989510594585 L 406 240.28926733575977 L 407.2 239.00478697460315 L 408.4 237.7475705561609 L 409.59999999999997 236.51963492343253 L 410.8 235.3229499467983 L 412 234.15943536392808 L 413.2 233.0309577001126 L 414.4 231.93932727395955 L 415.6 230.88629529325652 L 416.79999999999995 229.87355104566115 L 418 228.90271918872293 L 419.2 227.97535714358722 L 420.40000000000003 227.09295259655923 L 421.59999999999997 226.25692111253872 L 422.8 225.46860386415187 L 424 224.72926548022514 L 425.20000000000005 224.04009201705063 L 426.4 223.40218905569944 L 427.6 222.816579928434 L 428.8 222.2842040770651 L 430 221.805915545887 L 431.2 221.38248161160845 L 432.40000000000003 221.0145815524774 L 433.6 220.70280555857403 L 434.8 220.44765378501984 L 436 220.24953554962266 L 437.2 220.10876867624336 L 438.4 220.0255789849388 L 439.59999999999997 220.00009992969834 L 440.8 220.03237238435517 L 442 220.12234457701607 L 443.2 220.26987217311435 L 444.4 220.47471850695348 L 445.6 220.73655496136917 L 446.79999999999995 221.0549614949013 L 448 221.42942731563002 L 449.2 221.8593517005947 L 450.40000000000003 222.34404495948164 L 451.59999999999997 222.88272954103417 L 452.8 223.47454128041073 L 454 224.1185307854891 L 455.20000000000005 224.81366495989403 L 456.4 225.55882866030348 L 457.6 226.3528264853766 L 458.8 227.19438469343163 L 460 228.08215324579953 L 461.2 229.0147079725731 L 462.40000000000003 229.99055285727937 L 463.6 231.00812243680843 L 464.8 232.06578431275022 L 466 233.1618417701087 L 467.2 234.29453649919503 L 468.4 235.46205141633038 L 469.59999999999997 236.66251357883533 L 470.8 237.89399718962937 L 472 239.15452668661928 L 473.2 240.44207991192184 L 474.4 241.75459135583588 L 475.6 243.0899554703601 L 476.79999999999995 244.44603004694034 L 478 245.8206396530289 L 479.2 247.21157912194147 L 480.40000000000003 248.6166170904146 L 481.59999999999997 250.0334995781876 L 482.8 251.45995360386743 L 484 252.89369083127465 L 485.20000000000005 254.33241124042274 L 486.4 255.7738068172398 L 487.6 257.21556525611504 L 488.8 258.6553736693295 L 490 260.0909222974211 L 491.2 261.51990821453046 L 492.40000000000003 262.94003902278513 L 493.6 264.3490365297937 L 494.8 265.74464040335215 L 496 267.124611797498" fill="none" stroke="#90a9c7" stroke-opacity="0.9" stroke-width="14.5" stroke-linecap="round" stroke-linejoin="round" filter="url(#wave-glow)" />
  </g>
  <circle cx="256" cy="256" r="240" fill="none" stroke="#bfd0de" stroke-width="6" opacity="0.56" />
</svg>